{
  "accessors": [
    {
      "bufferView": 0,
      "componentType": 5125,
      "count": 179100,
      "type": "SCALAR"
    },
    {
      "bufferView": 1,
      "componentType": 5126,
      "count": 46504,
      "max": [
        9.0,
        45.5063934326172,
        9.0
      ],
      "min": [
        -9.0,
        -1.03392791748047,
        -9.0
      ],
      "type": "VEC3"
    },
    {
      "bufferView": 2,
      "componentType": 5126,
      "count": 46504,
      "type": "VEC3"
    },
    {
      "bufferView": 3,
      "componentType": 5126,
      "count": 46504,
      "type": "VEC2"
    },
    {
      "bufferView": 4,
      "componentType": 5125,
      "count": 14100,
      "type": "SCALAR"
    },
    {
      "bufferView": 5,
      "componentType": 5126,
      "count": 2417,
      "max": [
        2.11965203285217,
        41.1392974853516,
        3.72550272941589
      ],
      "min": [
        -3.01486396789551,
        36.0047836303711,
        -3.59801292419434
      ],
      "type": "VEC3"
    },
    {
      "bufferView": 6,
      "componentType": 5126,
      "count": 2417,
      "type": "VEC3"
    },
    {
      "bufferView": 7,
      "componentType": 5126,
      "count": 2417,
      "type": "VEC2"
    }
  ],
  "asset": {
    "generator": "Substance Painter 6.1.1",
    "version": "2.0"
  },
  "bufferViews": [
    {
      "buffer": 0,
      "byteLength": 716400,
      "target": 34963
    },
    {
      "buffer": 0,
      "byteLength": 558048,
      "byteOffset": 716400,
      "target": 34962
    },
    {
      "buffer": 0,
      "byteLength": 558048,
      "byteOffset": 1274448,
      "target": 34962
    },
    {
      "buffer": 0,
      "byteLength": 372032,
      "byteOffset": 1832496,
      "target": 34962
    },
    {
      "buffer": 0,
      "byteLength": 56400,
      "byteOffset": 2204528,
      "target": 34963
    },
    {
      "buffer": 0,
      "byteLength": 29004,
      "byteOffset": 2260928,
      "target": 34962
    },
    {
      "buffer": 0,
      "byteLength": 29004,
      "byteOffset": 2289932,
      "target": 34962
    },
    {
      "buffer": 0,
      "byteLength": 19336,
      "byteOffset": 2318936,
      "target": 34962
    }
  ],
  "buffers": [
    {
      "byteLength": 2338272,
      "uri": "ioTavolo_roundCorners_V009.bin"
    }
  ],
  "images": [
    {
      "uri": "Set1_baseColor.png"
    },
    {
      "uri": "Set1_occlusionRoughnessMetallic.png"
    },
    {
      "uri": "Set1_normal.png"
    },
    {
      "uri": "Set1_emissive.png"
    },
    {
      "uri": "SetGlass_baseColor.png"
    },
    {
      "uri": "SetGlass_occlusionRoughnessMetallic.png"
    },
    {
      "uri": "SetGlass_normal.png"
    },
    {
      "uri": "SetGlass_emissive.png"
    }
  ],
  "materials": [
    {
      "alphaMode": "OPAQUE",
      "emissiveFactor": [
        1.0,
        1.0,
        1.0
      ],
      "emissiveTexture": {
        "index": 3
      },
      "name": "Set1",
      "normalTexture": {
        "index": 2
      },
      "occlusionTexture": {
        "index": 1
      },
      "pbrMetallicRoughness": {
        "baseColorTexture": {
          "index": 0
        },
        "metallicRoughnessTexture": {
          "index": 1
        }
      }
    },
    {
      "alphaMode": "BLEND",
      "emissiveFactor": [
        1.0,
        1.0,
        1.0
      ],
      "emissiveTexture": {
        "index": 7
      },
      "name": "SetGlass",
      "normalTexture": {
        "index": 6
      },
      "occlusionTexture": {
        "index": 5
      },
      "pbrMetallicRoughness": {
        "baseColorTexture": {
          "index": 4
        },
        "metallicRoughnessTexture": {
          "index": 5
        }
      }
    }
  ],
  "meshes": [
    {
      "name": "ioTavolo_UV_manual",
      "primitives": [
        {
          "attributes": {
            "NORMAL": 2,
            "POSITION": 1,
            "TEXCOORD_0": 3
          },
          "indices": 0,
          "material": 0,
          "mode": 4
        }
      ]
    },
    {
      "name": "ioTavolo_UV_manual",
      "primitives": [
        {
          "attributes": {
            "NORMAL": 6,
            "POSITION": 5,
            "TEXCOORD_0": 7
          },
          "indices": 4,
          "material": 1,
          "mode": 4
        }
      ]
    }
  ],
  "nodes": [
    {
      "children": [
        1
      ],
      "name": "RootNode"
    },
    {
      "children": [
        2,
        3
      ],
      "name": "ioTavolo_UV_manual",
      "translation": [
        0.0,
        1.03394103050232,
        -8.12844712269647e-17
      ]
    },
    {
      "mesh": 0,
      "name": "ioTavolo_UV_manual"
    },
    {
      "mesh": 1,
      "name": "ioTavolo_UV_manual"
    }
  ],
  "samplers": [
    {
      "magFilter": 9729,
      "minFilter": 9985,
      "wrapS": 10497,
      "wrapT": 10497
    }
  ],
  "scene": 0,
  "scenes": [
    {
      "name": "Scene",
      "nodes": [
        0
      ]
    }
  ],
  "textures": [
    {
      "sampler": 0,
      "source": 0
    },
    {
      "sampler": 0,
      "source": 1
    },
    {
      "sampler": 0,
      "source": 2
    },
    {
      "sampler": 0,
      "source": 3
    },
    {
      "sampler": 0,
      "source": 4
    },
    {
      "sampler": 0,
      "source": 5
    },
    {
      "sampler": 0,
      "source": 6
    },
    {
      "sampler": 0,
      "source": 7
    }
  ]
}