{"asset":{"version":"2.0","generator":"babylon.js glTF exporter for 3dsmax 2018 v20200508.2"},"extensionsUsed":["KHR_texture_transform"],"extensionsRequired":["KHR_texture_transform"],"scene":0,"scenes":[{"nodes":[0,1,2,3,4,5,6,7,8,9,10]}],"nodes":[{"mesh":0,"name":"Rectangle006"},{"mesh":1,"name":"Rectangle008"},{"mesh":2,"translation":[-0.002000122,0.475,-5.42499971],"name":"FurnitureB"},{"mesh":3,"translation":[-0.05062393,2.96972036,1.8],"rotation":[0.7071068,0.0,0.0,0.7071067],"name":"Arc002"},{"translation":[-2.85754824,0.0,-6.875751],"rotation":[0.49999997,-0.50000006,0.5000001,0.49999997],"name":"VRaySun001.Target"},{"mesh":4,"translation":[-3.65029931,1.52587887E-07,-0.04776901],"name":"Rectangle014"},{"mesh":5,"translation":[-0.462487638,0.0,2.25],"name":"FurnitureA"},{"mesh":6,"translation":[-0.7372435,0.35397318,-0.453637034],"rotation":[0.534938753,-0.5349388,0.4624289,0.462429136],"scale":[1.0,-1.0,1.0],"name":"FurnitureC"},{"name":"Particle View 001"},{"translation":[-288.822662,55.0,92.94002],"rotation":[-0.0731310248,-0.5766524,-0.05193168,0.812051058],"name":"VRaySun001"},{"camera":0,"translation":[-0.971534431,2.68072,-2.42585182],"rotation":[0.052009955,-0.895042539,0.108389705,0.429471374],"scale":[1.00000179,1.00000238,1.00000119],"name":"S1 - O1"}],"cameras":[{"perspective":{"yfov":0.0,"zfar":10000.0,"znear":0.1},"type":"perspective","name":"S1 - O1"}],"meshes":[{"primitives":[{"attributes":{"POSITION":1,"NORMAL":2,"TEXCOORD_0":3},"indices":0,"material":0}],"name":"Rectangle006"},{"primitives":[{"attributes":{"POSITION":5,"NORMAL":6,"TEXCOORD_0":7},"indices":4,"material":1}],"name":"Rectangle008"},{"primitives":[{"attributes":{"POSITION":9,"NORMAL":10,"TEXCOORD_0":11},"indices":8,"material":2}],"name":"FurnitureB"},{"primitives":[{"attributes":{"POSITION":13,"NORMAL":14,"TEXCOORD_0":15},"indices":12,"material":3}],"name":"Arc002"},{"primitives":[{"attributes":{"POSITION":17,"NORMAL":18,"TEXCOORD_0":19},"indices":16,"material":4}],"name":"Rectangle014"},{"primitives":[{"attributes":{"POSITION":21,"NORMAL":22,"TEXCOORD_0":23},"indices":20,"material":5}],"name":"FurnitureA"},{"primitives":[{"attributes":{"POSITION":25,"NORMAL":26,"TEXCOORD_0":27},"indices":24,"material":6}],"name":"FurnitureC"}],"accessors":[{"bufferView":0,"componentType":5123,"count":1080,"type":"SCALAR","name":"accessorIndices"},{"bufferView":1,"componentType":5126,"count":1080,"max":[2.65000057,3.00000024,4.999999],"min":[-2.855,-3.044822E-07,-5.65],"type":"VEC3","name":"accessorPositions"},{"bufferView":1,"byteOffset":12960,"componentType":5126,"count":1080,"type":"VEC3","name":"accessorNormals"},{"bufferView":2,"componentType":5126,"count":1080,"type":"VEC2","name":"accessorUVs"},{"bufferView":0,"byteOffset":2160,"componentType":5123,"count":144,"type":"SCALAR","name":"accessorIndices"},{"bufferView":1,"byteOffset":25920,"componentType":5126,"count":144,"max":[2.65000057,0.200000048,5.0],"min":[-2.65029931,-1.97887417E-07,-5.65],"type":"VEC3","name":"accessorPositions"},{"bufferView":1,"byteOffset":27648,"componentType":5126,"count":144,"type":"VEC3","name":"accessorNormals"},{"bufferView":2,"byteOffset":8640,"componentType":5126,"count":144,"type":"VEC2","name":"accessorUVs"},{"bufferView":0,"byteOffset":2448,"componentType":5123,"count":3516,"type":"SCALAR","name":"accessorIndices"},{"bufferView":1,"byteOffset":29376,"componentType":5126,"count":3516,"max":[2.652,2.325,10.425],"min":[-2.652,-0.47500053,-0.225],"type":"VEC3","name":"accessorPositions"},{"bufferView":1,"byteOffset":71568,"componentType":5126,"count":3516,"type":"VEC3","name":"accessorNormals"},{"bufferView":2,"byteOffset":9792,"componentType":5126,"count":3516,"type":"VEC2","name":"accessorUVs"},{"bufferView":0,"byteOffset":9480,"componentType":5123,"count":1116,"type":"SCALAR","name":"accessorIndices"},{"bufferView":1,"byteOffset":113760,"componentType":5126,"count":1116,"max":[2.7006247,2.59399417E-06,0.199721679],"min":[-2.5993762,-7.450002,-8.747101E-05],"type":"VEC3","name":"accessorPositions"},{"bufferView":1,"byteOffset":127152,"componentType":5126,"count":1116,"type":"VEC3","name":"accessorNormals"},{"bufferView":2,"byteOffset":37920,"componentType":5126,"count":1116,"type":"VEC2","name":"accessorUVs"},{"bufferView":0,"byteOffset":11712,"componentType":5123,"count":411,"type":"SCALAR","name":"accessorIndices"},{"bufferView":1,"byteOffset":140544,"componentType":5126,"count":411,"max":[0.800299644,0.400000066,5.04683638],"min":[-2.15025,-0.200000167,-5.35223055],"type":"VEC3","name":"accessorPositions"},{"bufferView":1,"byteOffset":145476,"componentType":5126,"count":411,"type":"VEC3","name":"accessorNormals"},{"bufferView":2,"byteOffset":46848,"componentType":5126,"count":411,"type":"VEC2","name":"accessorUVs"},{"bufferView":0,"byteOffset":12536,"componentType":5123,"count":11790,"type":"SCALAR","name":"accessorIndices"},{"bufferView":1,"byteOffset":150408,"componentType":5126,"count":11790,"max":[3.11248779,2.3919003,2.749999],"min":[-2.18781066,-5.340576E-07,-7.892634],"type":"VEC3","name":"accessorPositions"},{"bufferView":1,"byteOffset":291888,"componentType":5126,"count":11790,"type":"VEC3","name":"accessorNormals"},{"bufferView":2,"byteOffset":50136,"componentType":5126,"count":11790,"type":"VEC2","name":"accessorUVs"},{"bufferView":0,"byteOffset":36116,"componentType":5125,"count":122994,"type":"SCALAR","name":"accessorIndices"},{"bufferView":1,"byteOffset":433368,"componentType":5126,"count":122994,"max":[1.30531228,1.60695219,0.398968428],"min":[-0.289338827,-0.23481077,-0.5929135],"type":"VEC3","name":"accessorPositions"},{"bufferView":1,"byteOffset":1909296,"componentType":5126,"count":122994,"type":"VEC3","name":"accessorNormals"},{"bufferView":2,"byteOffset":144456,"componentType":5126,"count":122994,"type":"VEC2","name":"accessorUVs"}],"bufferViews":[{"buffer":0,"byteLength":528092,"name":"bufferViewScalar"},{"buffer":0,"byteOffset":528092,"byteLength":3385224,"byteStride":12,"name":"bufferViewFloatVec3"},{"buffer":0,"byteOffset":3913316,"byteLength":1128408,"byteStride":8,"name":"bufferViewFloatVec2"}],"buffers":[{"uri":"Sandbox_Ver2.bin","byteLength":5041724}],"materials":[{"pbrMetallicRoughness":{"baseColorTexture":{"index":0,"extensions":{"KHR_texture_transform":{"offset":[0.0,0.0],"scale":[1.0,1.0],"texCoord":0}}},"metallicFactor":0.0},"emissiveTexture":{"index":0,"extensions":{"KHR_texture_transform":{"offset":[0.0,0.0],"scale":[1.0,1.0],"texCoord":0}}},"emissiveFactor":[0.3,0.3,0.3],"name":"Walls"},{"pbrMetallicRoughness":{"baseColorTexture":{"index":1,"extensions":{"KHR_texture_transform":{"offset":[0.0,0.0],"scale":[1.0,1.0],"texCoord":0}}},"metallicFactor":0.0},"emissiveTexture":{"index":1,"extensions":{"KHR_texture_transform":{"offset":[0.0,0.0],"scale":[1.0,1.0],"texCoord":0}}},"emissiveFactor":[0.3,0.3,0.3],"name":"Floor_A"},{"pbrMetallicRoughness":{"baseColorTexture":{"index":2,"extensions":{"KHR_texture_transform":{"offset":[0.0,0.0],"scale":[1.0,1.0],"texCoord":0}}},"metallicFactor":0.0},"emissiveTexture":{"index":2,"extensions":{"KHR_texture_transform":{"offset":[0.0,0.0],"scale":[1.0,1.0],"texCoord":0}}},"emissiveFactor":[0.25,0.25,0.25],"name":"Furniture_B"},{"pbrMetallicRoughness":{"baseColorTexture":{"index":3,"extensions":{"KHR_texture_transform":{"offset":[0.0,0.0],"scale":[1.0,1.0],"texCoord":0}}},"metallicFactor":0.0},"emissiveTexture":{"index":3,"extensions":{"KHR_texture_transform":{"offset":[0.0,0.0],"scale":[1.0,1.0],"texCoord":0}}},"emissiveFactor":[0.5,0.5,0.5],"name":"Ceiling"},{"pbrMetallicRoughness":{"baseColorTexture":{"index":4,"extensions":{"KHR_texture_transform":{"offset":[0.0,0.0],"scale":[1.0,1.0],"texCoord":0}}},"metallicFactor":0.0},"emissiveTexture":{"index":4,"extensions":{"KHR_texture_transform":{"offset":[0.0,0.0],"scale":[1.0,1.0],"texCoord":0}}},"emissiveFactor":[0.3,0.3,0.3],"name":"Floor_B"},{"pbrMetallicRoughness":{"baseColorTexture":{"index":5,"extensions":{"KHR_texture_transform":{"offset":[0.0,0.0],"scale":[1.0,1.0],"texCoord":0}}},"metallicFactor":0.0},"emissiveTexture":{"index":5,"extensions":{"KHR_texture_transform":{"offset":[0.0,0.0],"scale":[1.0,1.0],"texCoord":0}}},"emissiveFactor":[0.25,0.25,0.25],"name":"Furniture_A"},{"pbrMetallicRoughness":{"baseColorTexture":{"index":6,"extensions":{"KHR_texture_transform":{"offset":[0.0,0.0],"scale":[1.0,1.0],"texCoord":0}}},"metallicFactor":0.0},"emissiveTexture":{"index":6,"extensions":{"KHR_texture_transform":{"offset":[0.0,0.0],"scale":[1.0,1.0],"texCoord":0}}},"emissiveFactor":[0.3,0.3,0.3],"name":"Furniture_C"}],"textures":[{"sampler":0,"source":0,"name":"Tex_Walls.png"},{"sampler":0,"source":1,"name":"Tex _ FloorA.png"},{"sampler":0,"source":2,"name":"Tex _ FurnitureB.png"},{"sampler":0,"source":3,"name":"Tex_Ceiling.png"},{"sampler":0,"source":4,"name":"Tex _ FloorB.png"},{"sampler":0,"source":5,"name":"Tex _ FurnitureA.png"},{"sampler":0,"source":6,"name":"Tex_FurnitureC.png"}],"images":[{"uri":"./Tex_Walls.png"},{"uri":"./Tex _ FloorA.png"},{"uri":"./Tex _ FurnitureB.png"},{"uri":"./Tex_Ceiling.png"},{"uri":"./Tex _ FloorB.png"},{"uri":"./Tex _ FurnitureA.png"},{"uri":"./Tex_FurnitureC.png"}],"samplers":[{"magFilter":9729,"minFilter":9987}]}