{"asset":{"version":"2.0","generator":"babylon.js glTF exporter for 3dsmax 2018 v20200508.2"},"scene":0,"scenes":[{"nodes":[0,1,2,3,4,5,6,7,8]}],"nodes":[{"mesh":0,"translation":[-0.211612433,0.0,-2.86017632],"name":"Furniture"},{"mesh":1,"name":"Buidling"},{"mesh":2,"name":"Object053"},{"mesh":3,"translation":[-2.47499943,1.39999986,-1.52587887E-07],"name":"Object057"},{"mesh":4,"translation":[-4.0,1.39999986,-1.52587887E-07],"name":"Object059"},{"mesh":5,"translation":[-2.47499943,1.39999986,-1.52587887E-07],"name":"Emmissive Lights"},{"name":"Particle View 001"},{"translation":[-2.7285533,0.0,5.40660429],"name":"Particle View 01"},{"name":"Default light"}],"meshes":[{"primitives":[{"attributes":{"POSITION":1,"NORMAL":2,"TEXCOORD_0":3},"indices":0,"material":0}],"name":"Furniture"},{"primitives":[{"attributes":{"POSITION":5,"NORMAL":6,"TEXCOORD_0":7},"indices":4,"material":1}],"name":"Buidling"},{"primitives":[{"attributes":{"POSITION":9,"NORMAL":10,"TEXCOORD_0":11},"indices":8,"material":2}],"name":"Object053"},{"primitives":[{"attributes":{"POSITION":13,"NORMAL":14,"TEXCOORD_0":15},"indices":12,"material":3}],"name":"Object057"},{"primitives":[{"attributes":{"POSITION":17,"NORMAL":18,"COLOR_0":19,"TEXCOORD_0":20},"indices":16,"material":4}],"name":"Object059"},{"primitives":[{"attributes":{"POSITION":22,"NORMAL":23,"COLOR_0":24,"TEXCOORD_0":25},"indices":21,"material":5}],"name":"Emmissive Lights"}],"accessors":[{"bufferView":0,"componentType":5125,"count":230958,"type":"SCALAR","name":"accessorIndices"},{"bufferView":1,"componentType":5126,"count":230958,"max":[2.579964,2.43541932,6.979349],"min":[-1.63487184,0.0,-1.65688872],"type":"VEC3","name":"accessorPositions"},{"bufferView":1,"byteOffset":2771496,"componentType":5126,"count":230958,"type":"VEC3","name":"accessorNormals"},{"bufferView":2,"componentType":5126,"count":230958,"type":"VEC2","name":"accessorUVs"},{"bufferView":0,"byteOffset":923832,"componentType":5123,"count":2226,"type":"SCALAR","name":"accessorIndices"},{"bufferView":1,"byteOffset":5542992,"componentType":5126,"count":2226,"max":[2.575,2.85,5.6],"min":[-4.07500029,0.0,-5.6],"type":"VEC3","name":"accessorPositions"},{"bufferView":1,"byteOffset":5569704,"componentType":5126,"count":2226,"type":"VEC3","name":"accessorNormals"},{"bufferView":2,"byteOffset":1847664,"componentType":5126,"count":2226,"type":"VEC2","name":"accessorUVs"},{"bufferView":0,"byteOffset":928284,"componentType":5123,"count":10962,"type":"SCALAR","name":"accessorIndices"},{"bufferView":1,"byteOffset":5596416,"componentType":5126,"count":10962,"max":[2.375,2.8,5.60000038],"min":[-2.375,0.0,-5.39651],"type":"VEC3","name":"accessorPositions"},{"bufferView":1,"byteOffset":5727960,"componentType":5126,"count":10962,"type":"VEC3","name":"accessorNormals"},{"bufferView":2,"byteOffset":1865472,"componentType":5126,"count":10962,"type":"VEC2","name":"accessorUVs"},{"bufferView":0,"byteOffset":950208,"componentType":5123,"count":14376,"type":"SCALAR","name":"accessorIndices"},{"bufferView":1,"byteOffset":5859504,"componentType":5126,"count":14376,"max":[4.10772657,1.40172791,4.5017395],"min":[-0.8332849,-1.4,-4.503255],"type":"VEC3","name":"accessorPositions"},{"bufferView":1,"byteOffset":6032016,"componentType":5126,"count":14376,"type":"VEC3","name":"accessorNormals"},{"bufferView":2,"byteOffset":1953168,"componentType":5126,"count":14376,"type":"VEC2","name":"accessorUVs"},{"bufferView":0,"byteOffset":978960,"componentType":5123,"count":64974,"type":"SCALAR","name":"accessorIndices"},{"bufferView":1,"byteOffset":6204528,"componentType":5126,"count":64974,"max":[6.50999975,1.40000021,5.544036],"min":[-0.050000608,-1.4,-5.0],"type":"VEC3","name":"accessorPositions"},{"bufferView":1,"byteOffset":6984216,"componentType":5126,"count":64974,"type":"VEC3","name":"accessorNormals"},{"bufferView":3,"componentType":5126,"count":64974,"type":"VEC4","name":"accessorColors"},{"bufferView":2,"byteOffset":2068176,"componentType":5126,"count":64974,"type":"VEC2","name":"accessorUVs"},{"bufferView":0,"byteOffset":1108908,"componentType":5123,"count":2202,"type":"SCALAR","name":"accessorIndices"},{"bufferView":1,"byteOffset":7763904,"componentType":5126,"count":2202,"max":[4.092627,1.38802361,4.48664],"min":[-0.8218826,0.38309586,-4.48815536],"type":"VEC3","name":"accessorPositions"},{"bufferView":1,"byteOffset":7790328,"componentType":5126,"count":2202,"type":"VEC3","name":"accessorNormals"},{"bufferView":3,"byteOffset":1039584,"componentType":5126,"count":2202,"type":"VEC4","name":"accessorColors"},{"bufferView":2,"byteOffset":2587968,"componentType":5126,"count":2202,"type":"VEC2","name":"accessorUVs"}],"bufferViews":[{"buffer":0,"byteLength":1113312,"name":"bufferViewScalar"},{"buffer":0,"byteOffset":1113312,"byteLength":7816752,"byteStride":12,"name":"bufferViewFloatVec3"},{"buffer":0,"byteOffset":8930064,"byteLength":2605584,"byteStride":8,"name":"bufferViewFloatVec2"},{"buffer":0,"byteOffset":11535648,"byteLength":1074816,"byteStride":16,"name":"bufferViewFloatVec4"}],"buffers":[{"uri":"Sandbox_Ver4.bin","byteLength":12610464}],"materials":[{"pbrMetallicRoughness":{"baseColorTexture":{"index":0},"metallicFactor":0.0},"name":"Tex _Furniture"},{"pbrMetallicRoughness":{"baseColorTexture":{"index":1},"metallicFactor":0.0},"name":"TEX _ Arch"},{"pbrMetallicRoughness":{"baseColorTexture":{"index":2},"metallicFactor":0.0},"name":"Tex _ Cabinets"},{"pbrMetallicRoughness":{"baseColorTexture":{"index":3},"metallicFactor":0.0},"name":"TEX _ Metals 2"},{"pbrMetallicRoughness":{"baseColorTexture":{"index":4},"metallicFactor":0.0},"name":"TEX _ Metals 1"},{"pbrMetallicRoughness":{"metallicFactor":0.0},"emissiveFactor":[1.0,1.0,1.0],"name":"Material #2146930089"}],"textures":[{"sampler":0,"source":0,"name":"Tex_Furniture.png"},{"sampler":0,"source":1,"name":"Tex_Arch1.png"},{"sampler":0,"source":2,"name":"Tex _Cabinets.png"},{"sampler":0,"source":3,"name":"Tex _ Metals 2.png"},{"sampler":0,"source":4,"name":"Tex _ Metals.png"}],"images":[{"uri":"./Tex_Furniture.png"},{"uri":"./Tex_Arch1.png"},{"uri":"./Tex _Cabinets.png"},{"uri":"./Tex _ Metals 2.png"},{"uri":"./Tex _ Metals.png"}],"samplers":[{"magFilter":9729,"minFilter":9987}]}