{
  "accessors": [
    {
      "bufferView": 0,
      "componentType": 5125,
      "count": 99699,
      "type": "SCALAR"
    },
    {
      "bufferView": 1,
      "componentType": 5126,
      "count": 30558,
      "max": [
        0.986794590950012,
        0.481955826282501,
        0.99999988079071
      ],
      "min": [
        -0.986793756484985,
        -0.481953412294388,
        -0.999999165534973
      ],
      "type": "VEC3"
    },
    {
      "bufferView": 2,
      "componentType": 5126,
      "count": 30558,
      "type": "VEC3"
    },
    {
      "bufferView": 3,
      "componentType": 5126,
      "count": 30558,
      "type": "VEC2"
    }
  ],
  "asset": {
    "generator": "Substance Painter 2018.1.3",
    "version": "2.0"
  },
  "bufferViews": [
    {
      "buffer": 0,
      "byteLength": 398796,
      "target": 34963
    },
    {
      "buffer": 0,
      "byteLength": 366696,
      "byteOffset": 398796,
      "target": 34962
    },
    {
      "buffer": 0,
      "byteLength": 366696,
      "byteOffset": 765492,
      "target": 34962
    },
    {
      "buffer": 0,
      "byteLength": 244464,
      "byteOffset": 1132188,
      "target": 34962
    }
  ],
  "buffers": [
    {
      "byteLength": 1376652,
      "uri": "Back_up.bin"
    }
  ],
  "images": [
    {
      "uri": "MAP_13_baseColor.png"
    },
    {
      "uri": "MAP_13_occlusionRoughnessMetallic.png"
    },
    {
      "uri": "MAP_13_normal.png"
    },
    {
      "uri": "MAP_13_emissive.png"
    }
  ],
  "materials": [
    {
      "alphaMode": "OPAQUE",
      "emissiveFactor": [
        1.0,
        1.0,
        1.0
      ],
      "emissiveTexture": {
        "index": 3
      },
      "name": "MAP_13",
      "normalTexture": {
        "index": 2
      },
      "occlusionTexture": {
        "index": 1
      },
      "pbrMetallicRoughness": {
        "baseColorTexture": {
          "index": 0
        },
        "metallicRoughnessTexture": {
          "index": 1
        }
      }
    }
  ],
  "meshes": [
    {
      "name": "Range_Cooker_Range_Cooker_Range_Cooker_Range_Cooker",
      "primitives": [
        {
          "attributes": {
            "NORMAL": 2,
            "POSITION": 1,
            "TEXCOORD_0": 3
          },
          "indices": 0,
          "material": 0,
          "mode": 4
        }
      ]
    }
  ],
  "nodes": [
    {
      "children": [
        1
      ],
      "name": "root",
      "scale": [
        1747.16784667969,
        1747.16784667969,
        1747.16784667969
      ],
      "translation": [
        -699.3056640625,
        846.192321777344,
        -1174.75354003906
      ]
    },
    {
      "children": [
        2
      ],
      "name": "Range_Cooker_Range_Cooker_Range_Cooker_Range_Cooker"
    },
    {
      "mesh": 0,
      "name": "Range_Cooker_Range_Cooker_Range_Cooker_Range_Cooker"
    }
  ],
  "samplers": [
    {
      "magFilter": 9729,
      "minFilter": 9985,
      "wrapS": 10497,
      "wrapT": 10497
    }
  ],
  "scene": 0,
  "scenes": [
    {
      "name": "Scene",
      "nodes": [
        0
      ]
    }
  ],
  "textures": [
    {
      "sampler": 0,
      "source": 0
    },
    {
      "sampler": 0,
      "source": 1
    },
    {
      "sampler": 0,
      "source": 2
    },
    {
      "sampler": 0,
      "source": 3
    }
  ]
}