{"asset":{"version":"2.0","generator":"babylon.js glTF exporter for 3ds max 2018 v1.1.0","copyright":"2017 (c) BabylonJS"},"scene":0,"scenes":[{"nodes":[0,1,2,3,4]}],"nodes":[{"translation":[1877.81616,1455.26,5100.14258],"rotation":[0.549167931,0.4343028,-0.406157,0.5872241],"scale":[1.0,1.0,0.9999998],"name":"CAM Establishing.Target"},{"translation":[-723.604,1432.39526,2065.65625],"rotation":[-0.234079048,-0.671049356,0.662307143,-0.237168819],"scale":[0.99999994,1.0,1.0],"name":"CAM Establishing001.Target"},{"translation":[2204.92822,1442.106,3670.09375],"rotation":[0.6709857,0.172252536,-0.164607763,0.702147841],"scale":[1.0,1.0,1.0],"name":"CAM Establishing002.Target"},{"translation":[-628.2179,990.554,-1207.377],"rotation":[0.6920361,-0.035470143,0.0340837762,0.720184863],"scale":[0.99999994,0.9999998,1.0],"name":"CAM Establishing003.Target"},{"mesh":0,"translation":[825.088257,495.756775,-424.712769],"rotation":[0.0,0.0,0.0,1.0],"scale":[1.0,1.0,1.0],"name":"Drawer_Top_Left"}],"meshes":[{"primitives":[{"attributes":{"POSITION":1,"NORMAL":2,"TEXCOORD_0":3},"indices":0,"mode":4,"material":0},{"attributes":{"POSITION":5,"NORMAL":6,"TEXCOORD_0":7},"indices":4,"mode":4,"material":1},{"attributes":{"POSITION":9,"NORMAL":10,"TEXCOORD_0":11},"indices":8,"mode":4,"material":2}],"name":"Drawer_Top_Left"}],"accessors":[{"bufferView":0,"componentType":5123,"count":126,"type":"SCALAR","name":"accessorIndices"},{"bufferView":1,"componentType":5126,"count":126,"max":[-841.2567,373.314636,344.358215],"min":[-1284.3241,205.578125,325.0557],"type":"VEC3","name":"accessorPositions"},{"bufferView":1,"byteOffset":1512,"componentType":5126,"count":126,"type":"VEC3","name":"accessorNormals"},{"bufferView":2,"componentType":5126,"count":126,"type":"VEC2","name":"accessorUVs"},{"bufferView":0,"byteOffset":252,"componentType":5123,"count":918,"type":"SCALAR","name":"accessorIndices"},{"bufferView":1,"byteOffset":3024,"componentType":5126,"count":918,"max":[-1046.83264,305.6524,359.503479],"min":[-1078.75208,273.24054,333.566254],"type":"VEC3","name":"accessorPositions"},{"bufferView":1,"byteOffset":14040,"componentType":5126,"count":918,"type":"VEC3","name":"accessorNormals"},{"bufferView":2,"byteOffset":1008,"componentType":5126,"count":918,"type":"VEC2","name":"accessorUVs"},{"bufferView":0,"byteOffset":2088,"componentType":5123,"count":1662,"type":"SCALAR","name":"accessorIndices"},{"bufferView":1,"byteOffset":25056,"componentType":5126,"count":1662,"max":[-841.2567,373.314758,325.055817],"min":[-1284.32373,205.578186,-301.593628],"type":"VEC3","name":"accessorPositions"},{"bufferView":1,"byteOffset":45000,"componentType":5126,"count":1662,"type":"VEC3","name":"accessorNormals"},{"bufferView":2,"byteOffset":8352,"componentType":5126,"count":1662,"type":"VEC2","name":"accessorUVs"}],"bufferViews":[{"buffer":0,"byteLength":5412,"name":"bufferViewScalar"},{"buffer":0,"byteOffset":5412,"byteLength":64944,"byteStride":12,"name":"bufferViewFloatVec3"},{"buffer":0,"byteOffset":70356,"byteLength":21648,"byteStride":8,"name":"bufferViewFloatVec2"}],"buffers":[{"uri":"Drawer_Top_Left.bin","byteLength":92004}],"materials":[{"pbrMetallicRoughness":{"baseColorFactor":[1.0,1.0,1.0,1.0],"baseColorTexture":{"index":0,"texCoord":0},"metallicFactor":0.0,"roughnessFactor":0.9},"emissiveFactor":[0.0,0.0,0.0],"alphaMode":"OPAQUE","name":"MAP_04_[Island_Units_Green]"},{"pbrMetallicRoughness":{"baseColorFactor":[1.0,1.0,1.0,1.0],"baseColorTexture":{"index":1,"texCoord":0},"metallicFactor":0.0,"roughnessFactor":0.9},"emissiveFactor":[0.0,0.0,0.0],"alphaMode":"OPAQUE","name":"MAP_12_[Handles]"},{"pbrMetallicRoughness":{"baseColorFactor":[1.0,1.0,1.0,1.0],"baseColorTexture":{"index":2,"texCoord":0},"metallicFactor":0.0,"roughnessFactor":0.9},"emissiveFactor":[0.0,0.0,0.0],"alphaMode":"OPAQUE","name":"MAT_15_[Drawer_Interiors]"}],"textures":[{"sampler":0,"source":0,"name":"MAP_04_[Island_Units_Green]_baseColor.jpg"},{"sampler":1,"source":1,"name":"MAP_12_[Handles]_baseColor.jpg"},{"sampler":2,"source":2,"name":"MAT_15_[Drawer_Interiors]_baseColor.jpg"}],"images":[{"uri":"MAP_04_[Island_Units_Green]_baseColor.jpg"},{"uri":"MAP_12_[Handles]_baseColor.jpg"},{"uri":"MAT_15_[Drawer_Interiors]_baseColor.jpg"}],"samplers":[{"magFilter":9729,"minFilter":9987,"wrapS":10497,"wrapT":10497},{"magFilter":9729,"minFilter":9987,"wrapS":10497,"wrapT":10497},{"magFilter":9729,"minFilter":9987,"wrapS":10497,"wrapT":10497}]}