{
    "asset" : {
        "generator" : "Khronos glTF Blender I/O v1.1.46",
        "version" : "2.0"
    },
    "scene" : 0,
    "scenes" : [
        {
            "name" : "Scene",
            "nodes" : [
                0,
                1,
                2,
                3,
                4,
                5,
                6
            ]
        }
    ],
    "nodes" : [
        {
            "name" : "Default light",
            "rotation" : [
                1,
                0,
                0,
                -1.3435885648505064e-07
            ],
            "scale" : [
                999.9921264648438,
                999.9921264648438,
                999.9921264648438
            ],
            "translation" : [
                224.6294708251953,
                -730.4349365234375,
                511.9092102050781
            ]
        },
        {
            "name" : "Person",
            "rotation" : [
                0.9183719754219055,
                0.02855766750872135,
                -0.3888821005821228,
                0.06743963807821274
            ],
            "scale" : [
                999.9921264648438,
                999.9924926757812,
                999.9922485351562
            ],
            "translation" : [
                -1024.6031494140625,
                1123.69677734375,
                -654.9028930664062
            ]
        },
        {
            "mesh" : 0,
            "name" : "Box001",
            "rotation" : [
                1,
                0,
                0,
                -1.3435885648505064e-07
            ],
            "scale" : [
                999.9921264648438,
                999.9921264648438,
                999.9921264648438
            ],
            "translation" : [
                259.75897216796875,
                -730.4349365234375,
                522.7501220703125
            ]
        },
        {
            "mesh" : 1,
            "name" : "Object001",
            "rotation" : [
                1,
                0,
                0,
                -1.3435885648505064e-07
            ],
            "scale" : [
                999.9921264648438,
                999.9921264648438,
                999.9921264648438
            ],
            "translation" : [
                259.75897216796875,
                -730.4349365234375,
                522.7501220703125
            ]
        },
        {
            "mesh" : 2,
            "name" : "Object002",
            "rotation" : [
                1,
                0,
                0,
                -1.3435885648505064e-07
            ],
            "scale" : [
                999.9921264648438,
                999.9921264648438,
                999.9921264648438
            ],
            "translation" : [
                259.75897216796875,
                -730.4349365234375,
                522.7501220703125
            ]
        },
        {
            "mesh" : 3,
            "name" : "Object",
            "rotation" : [
                1,
                0,
                0,
                -1.3435885648505064e-07
            ],
            "scale" : [
                999.9921264648438,
                999.9921264648438,
                999.9921264648438
            ],
            "translation" : [
                1759.3253173828125,
                769.553955078125,
                -687.4708251953125
            ]
        },
        {
            "mesh" : 4,
            "name" : "Arc001",
            "rotation" : [
                1,
                0,
                0,
                -1.3435885648505064e-07
            ],
            "scale" : [
                999.9921264648438,
                999.9921264648438,
                999.9921264648438
            ],
            "translation" : [
                -1740.202392578125,
                1033.607421875,
                -741.372802734375
            ]
        }
    ],
    "materials" : [
        {
            "emissiveFactor" : [
                1,
                1,
                1
            ],
            "emissiveTexture" : {
                "index" : 0,
                "texCoord" : 0
            },
            "name" : "Material #40.001",
            "pbrMetallicRoughness" : {
                "baseColorTexture" : {
                    "index" : 1,
                    "texCoord" : 0
                },
                "metallicFactor" : 0,
                "roughnessFactor" : 0.6800000071525574
            }
        },
        {
            "emissiveFactor" : [
                1,
                1,
                1
            ],
            "emissiveTexture" : {
                "index" : 2,
                "texCoord" : 0
            },
            "name" : "Material #41.001",
            "pbrMetallicRoughness" : {
                "baseColorTexture" : {
                    "index" : 3,
                    "texCoord" : 0
                },
                "metallicFactor" : 0,
                "roughnessFactor" : 0.6200000047683716
            }
        },
        {
            "emissiveFactor" : [
                1,
                1,
                1
            ],
            "emissiveTexture" : {
                "index" : 4,
                "texCoord" : 0
            },
            "name" : "Material #39.001",
            "pbrMetallicRoughness" : {
                "baseColorTexture" : {
                    "index" : 5,
                    "texCoord" : 0
                },
                "metallicFactor" : 0,
                "roughnessFactor" : 1
            }
        },
        {
            "emissiveFactor" : [
                1,
                1,
                1
            ],
            "emissiveTexture" : {
                "index" : 6,
                "texCoord" : 0
            },
            "name" : "Material #38.001",
            "normalTexture" : {
                "index" : 7,
                "texCoord" : 0
            },
            "pbrMetallicRoughness" : {
                "baseColorTexture" : {
                    "index" : 8,
                    "texCoord" : 0
                },
                "metallicFactor" : 0,
                "roughnessFactor" : 1
            }
        },
        {
            "emissiveFactor" : [
                1,
                1,
                1
            ],
            "emissiveTexture" : {
                "index" : 9,
                "texCoord" : 0
            },
            "name" : "Material #36.001",
            "pbrMetallicRoughness" : {
                "baseColorFactor" : [
                    0.5,
                    0.5,
                    0.5,
                    1
                ],
                "metallicFactor" : 0,
                "roughnessFactor" : 1
            }
        }
    ],
    "meshes" : [
        {
            "name" : "Mesh_0.001",
            "primitives" : [
                {
                    "attributes" : {
                        "POSITION" : 0,
                        "NORMAL" : 1,
                        "TEXCOORD_0" : 2
                    },
                    "indices" : 3,
                    "material" : 0
                }
            ]
        },
        {
            "name" : "Mesh_1.001",
            "primitives" : [
                {
                    "attributes" : {
                        "POSITION" : 4,
                        "NORMAL" : 5,
                        "TEXCOORD_0" : 6
                    },
                    "indices" : 7,
                    "material" : 1
                }
            ]
        },
        {
            "name" : "Mesh_2.001",
            "primitives" : [
                {
                    "attributes" : {
                        "POSITION" : 8,
                        "NORMAL" : 9,
                        "TEXCOORD_0" : 10
                    },
                    "indices" : 11,
                    "material" : 2
                }
            ]
        },
        {
            "name" : "Mesh_3.001",
            "primitives" : [
                {
                    "attributes" : {
                        "POSITION" : 12,
                        "NORMAL" : 13,
                        "TEXCOORD_0" : 14
                    },
                    "indices" : 15,
                    "material" : 3
                }
            ]
        },
        {
            "name" : "Mesh_4.001",
            "primitives" : [
                {
                    "attributes" : {
                        "POSITION" : 16,
                        "NORMAL" : 17,
                        "TEXCOORD_0" : 18
                    },
                    "indices" : 19,
                    "material" : 4
                }
            ]
        }
    ],
    "textures" : [
        {
            "source" : 0
        },
        {
            "source" : 1
        },
        {
            "source" : 2
        },
        {
            "source" : 3
        },
        {
            "source" : 4
        },
        {
            "source" : 5
        },
        {
            "source" : 6
        },
        {
            "source" : 7
        },
        {
            "source" : 8
        },
        {
            "source" : 9
        }
    ],
    "images" : [
        {
            "mimeType" : "image/png",
            "name" : "Image_9",
            "uri" : "Image_9.png"
        },
        {
            "mimeType" : "image/png",
            "name" : "Image_5",
            "uri" : "Image_5.png"
        },
        {
            "mimeType" : "image/png",
            "name" : "Image_8",
            "uri" : "Image_8.png"
        },
        {
            "mimeType" : "image/png",
            "name" : "Image_2",
            "uri" : "Image_2.png"
        },
        {
            "mimeType" : "image/png",
            "name" : "Image_4",
            "uri" : "Image_4.png"
        },
        {
            "mimeType" : "image/png",
            "name" : "Image_0",
            "uri" : "Image_0.png"
        },
        {
            "mimeType" : "image/png",
            "name" : "Image_6",
            "uri" : "Image_6.png"
        },
        {
            "mimeType" : "image/png",
            "name" : "Image_7",
            "uri" : "Image_7.png"
        },
        {
            "mimeType" : "image/png",
            "name" : "Image_3",
            "uri" : "Image_3.png"
        },
        {
            "mimeType" : "image/png",
            "name" : "Image_1",
            "uri" : "Image_1.png"
        }
    ],
    "accessors" : [
        {
            "bufferView" : 0,
            "componentType" : 5126,
            "count" : 546,
            "max" : [
                1.5,
                -2.799999952316284,
                3.920461416244507
            ],
            "min" : [
                -1.5,
                -3,
                -1.5
            ],
            "type" : "VEC3"
        },
        {
            "bufferView" : 1,
            "componentType" : 5126,
            "count" : 546,
            "type" : "VEC3"
        },
        {
            "bufferView" : 2,
            "componentType" : 5126,
            "count" : 546,
            "type" : "VEC2"
        },
        {
            "bufferView" : 3,
            "componentType" : 5123,
            "count" : 546,
            "type" : "SCALAR"
        },
        {
            "bufferView" : 4,
            "componentType" : 5126,
            "count" : 4098,
            "max" : [
                1.49915611743927,
                0.19999998807907104,
                3.920461416244507
            ],
            "min" : [
                -1.7300000190734863,
                -3.1999998092651367,
                -1.7300000190734863
            ],
            "type" : "VEC3"
        },
        {
            "bufferView" : 5,
            "componentType" : 5126,
            "count" : 4098,
            "type" : "VEC3"
        },
        {
            "bufferView" : 6,
            "componentType" : 5126,
            "count" : 4098,
            "type" : "VEC2"
        },
        {
            "bufferView" : 7,
            "componentType" : 5123,
            "count" : 4098,
            "type" : "SCALAR"
        },
        {
            "bufferView" : 8,
            "componentType" : 5126,
            "count" : 6,
            "max" : [
                1.5,
                0,
                3.920461416244507
            ],
            "min" : [
                -1.5,
                0,
                -1.5
            ],
            "type" : "VEC3"
        },
        {
            "bufferView" : 9,
            "componentType" : 5126,
            "count" : 6,
            "type" : "VEC3"
        },
        {
            "bufferView" : 10,
            "componentType" : 5126,
            "count" : 6,
            "type" : "VEC2"
        },
        {
            "bufferView" : 11,
            "componentType" : 5123,
            "count" : 6,
            "type" : "SCALAR"
        },
        {
            "bufferView" : 12,
            "componentType" : 5126,
            "count" : 210,
            "max" : [
                0.00042175292037427425,
                1.6999999284744263,
                2.7078869342803955
            ],
            "min" : [
                -0.00042205810314044356,
                -1.6999999284744263,
                -2.7078869342803955
            ],
            "type" : "VEC3"
        },
        {
            "bufferView" : 13,
            "componentType" : 5126,
            "count" : 210,
            "type" : "VEC3"
        },
        {
            "bufferView" : 14,
            "componentType" : 5126,
            "count" : 210,
            "type" : "VEC2"
        },
        {
            "bufferView" : 15,
            "componentType" : 5123,
            "count" : 210,
            "type" : "SCALAR"
        },
        {
            "bufferView" : 16,
            "componentType" : 5126,
            "count" : 252,
            "max" : [
                3.2471489906311035,
                1.25,
                1.206603765487671
            ],
            "min" : [
                -0.14920227229595184,
                -1.2499998807907104,
                -3.349348783493042
            ],
            "type" : "VEC3"
        },
        {
            "bufferView" : 17,
            "componentType" : 5126,
            "count" : 252,
            "type" : "VEC3"
        },
        {
            "bufferView" : 18,
            "componentType" : 5126,
            "count" : 252,
            "type" : "VEC2"
        },
        {
            "bufferView" : 19,
            "componentType" : 5123,
            "count" : 252,
            "type" : "SCALAR"
        }
    ],
    "bufferViews" : [
        {
            "buffer" : 0,
            "byteLength" : 6552,
            "byteOffset" : 0
        },
        {
            "buffer" : 0,
            "byteLength" : 6552,
            "byteOffset" : 6552
        },
        {
            "buffer" : 0,
            "byteLength" : 4368,
            "byteOffset" : 13104
        },
        {
            "buffer" : 0,
            "byteLength" : 1092,
            "byteOffset" : 17472
        },
        {
            "buffer" : 0,
            "byteLength" : 49176,
            "byteOffset" : 18564
        },
        {
            "buffer" : 0,
            "byteLength" : 49176,
            "byteOffset" : 67740
        },
        {
            "buffer" : 0,
            "byteLength" : 32784,
            "byteOffset" : 116916
        },
        {
            "buffer" : 0,
            "byteLength" : 8196,
            "byteOffset" : 149700
        },
        {
            "buffer" : 0,
            "byteLength" : 72,
            "byteOffset" : 157896
        },
        {
            "buffer" : 0,
            "byteLength" : 72,
            "byteOffset" : 157968
        },
        {
            "buffer" : 0,
            "byteLength" : 48,
            "byteOffset" : 158040
        },
        {
            "buffer" : 0,
            "byteLength" : 12,
            "byteOffset" : 158088
        },
        {
            "buffer" : 0,
            "byteLength" : 2520,
            "byteOffset" : 158100
        },
        {
            "buffer" : 0,
            "byteLength" : 2520,
            "byteOffset" : 160620
        },
        {
            "buffer" : 0,
            "byteLength" : 1680,
            "byteOffset" : 163140
        },
        {
            "buffer" : 0,
            "byteLength" : 420,
            "byteOffset" : 164820
        },
        {
            "buffer" : 0,
            "byteLength" : 3024,
            "byteOffset" : 165240
        },
        {
            "buffer" : 0,
            "byteLength" : 3024,
            "byteOffset" : 168264
        },
        {
            "buffer" : 0,
            "byteLength" : 2016,
            "byteOffset" : 171288
        },
        {
            "buffer" : 0,
            "byteLength" : 504,
            "byteOffset" : 173304
        }
    ],
    "buffers" : [
        {
            "byteLength" : 173808,
            "uri" : "SCENE.bin"
        }
    ]
}
