{"asset":{"version":"2.0","generator":"babylon.js glTF exporter for 3dsmax 2018 v20200508.2"},"extensionsUsed":["KHR_texture_transform"],"extensionsRequired":["KHR_texture_transform"],"scene":0,"scenes":[{"nodes":[0,1,2,3,4,5,6]}],"nodes":[{"mesh":0,"translation":[0.0351297744,0.0,0.0108409878],"name":"Box001"},{"mesh":1,"translation":[0.0351297744,0.0,0.0108409878],"name":"Object001"},{"mesh":2,"translation":[0.0351297744,0.0,0.0108409878],"name":"Object002"},{"mesh":3,"translation":[1.5347079,1.5,-1.1993897],"name":"Object"},{"mesh":4,"translation":[-1.96484733,1.76405549,-1.25329208],"name":"Arc001"},{"name":"Default light"},{"camera":0,"translation":[-1.24924254,1.85414565,-1.16682148],"rotation":[-0.06744021,0.388882071,0.02855733,0.9183719],"name":"Person"}],"cameras":[{"perspective":{"yfov":0.6437095,"zfar":10000.0,"znear":0.1},"type":"perspective","name":"Person"}],"meshes":[{"primitives":[{"attributes":{"POSITION":1,"NORMAL":2,"TEXCOORD_0":3},"indices":0,"material":0}],"name":"Box001"},{"primitives":[{"attributes":{"POSITION":5,"NORMAL":6,"TEXCOORD_0":7},"indices":4,"material":1}],"name":"Object001"},{"primitives":[{"attributes":{"POSITION":9,"NORMAL":10,"TEXCOORD_0":11},"indices":8,"material":2}],"name":"Object002"},{"primitives":[{"attributes":{"POSITION":13,"NORMAL":14,"TEXCOORD_0":15},"indices":12,"material":3}],"name":"Object"},{"primitives":[{"attributes":{"POSITION":17,"NORMAL":18,"TEXCOORD_0":19},"indices":16,"material":4}],"name":"Arc001"}],"accessors":[{"bufferView":0,"componentType":5123,"count":546,"type":"SCALAR","name":"accessorIndices"},{"bufferView":1,"componentType":5126,"count":546,"max":[1.5,3.0,1.5],"min":[-1.5,2.8,-3.92046142],"type":"VEC3","name":"accessorPositions"},{"bufferView":1,"byteOffset":6552,"componentType":5126,"count":546,"type":"VEC3","name":"accessorNormals"},{"bufferView":2,"componentType":5126,"count":546,"type":"VEC2","name":"accessorUVs"},{"bufferView":0,"byteOffset":1092,"componentType":5123,"count":4098,"type":"SCALAR","name":"accessorIndices"},{"bufferView":1,"byteOffset":13104,"componentType":5126,"count":4098,"max":[1.49915612,3.19999981,1.73],"min":[-1.73,-0.199999988,-3.92046142],"type":"VEC3","name":"accessorPositions"},{"bufferView":1,"byteOffset":62280,"componentType":5126,"count":4098,"type":"VEC3","name":"accessorNormals"},{"bufferView":2,"byteOffset":4368,"componentType":5126,"count":4098,"type":"VEC2","name":"accessorUVs"},{"bufferView":0,"byteOffset":9288,"componentType":5123,"count":6,"type":"SCALAR","name":"accessorIndices"},{"bufferView":1,"byteOffset":111456,"componentType":5126,"count":6,"max":[1.5,0.0,1.5],"min":[-1.5,0.0,-3.92046142],"type":"VEC3","name":"accessorPositions"},{"bufferView":1,"byteOffset":111528,"componentType":5126,"count":6,"type":"VEC3","name":"accessorNormals"},{"bufferView":2,"byteOffset":37152,"componentType":5126,"count":6,"type":"VEC2","name":"accessorUVs"},{"bufferView":0,"byteOffset":9300,"componentType":5123,"count":210,"type":"SCALAR","name":"accessorIndices"},{"bufferView":1,"byteOffset":111600,"componentType":5126,"count":210,"max":[0.00042175292,1.69999993,2.707887],"min":[-0.0004220581,-1.69999993,-2.707887],"type":"VEC3","name":"accessorPositions"},{"bufferView":1,"byteOffset":114120,"componentType":5126,"count":210,"type":"VEC3","name":"accessorNormals"},{"bufferView":2,"byteOffset":37200,"componentType":5126,"count":210,"type":"VEC2","name":"accessorUVs"},{"bufferView":0,"byteOffset":9720,"componentType":5123,"count":252,"type":"SCALAR","name":"accessorIndices"},{"bufferView":1,"byteOffset":116640,"componentType":5126,"count":252,"max":[3.247149,1.24999988,3.34934878],"min":[-0.149202272,-1.25,-1.20660377],"type":"VEC3","name":"accessorPositions"},{"bufferView":1,"byteOffset":119664,"componentType":5126,"count":252,"type":"VEC3","name":"accessorNormals"},{"bufferView":2,"byteOffset":38880,"componentType":5126,"count":252,"type":"VEC2","name":"accessorUVs"}],"bufferViews":[{"buffer":0,"byteLength":10224,"name":"bufferViewScalar"},{"buffer":0,"byteOffset":10224,"byteLength":122688,"byteStride":12,"name":"bufferViewFloatVec3"},{"buffer":0,"byteOffset":132912,"byteLength":40896,"byteStride":8,"name":"bufferViewFloatVec2"}],"buffers":[{"uri":"VRayBake_glTF.bin","byteLength":173808}],"materials":[{"pbrMetallicRoughness":{"baseColorTexture":{"index":0,"extensions":{"KHR_texture_transform":{"offset":[0.0,0.0],"scale":[1.0,1.0],"texCoord":0}}},"metallicFactor":0.0},"emissiveTexture":{"index":0,"extensions":{"KHR_texture_transform":{"offset":[0.0,0.0],"scale":[1.0,1.0],"texCoord":0}}},"emissiveFactor":[1.0,1.0,1.0],"name":"Material #40"},{"pbrMetallicRoughness":{"baseColorTexture":{"index":1,"extensions":{"KHR_texture_transform":{"offset":[0.0,0.0],"scale":[1.0,1.0],"texCoord":0}}},"metallicFactor":0.0},"emissiveTexture":{"index":1,"extensions":{"KHR_texture_transform":{"offset":[0.0,0.0],"scale":[1.0,1.0],"texCoord":0}}},"emissiveFactor":[1.0,1.0,1.0],"name":"Material #41"},{"pbrMetallicRoughness":{"baseColorTexture":{"index":2,"extensions":{"KHR_texture_transform":{"offset":[0.0,0.0],"scale":[1.0,1.0],"texCoord":0}}},"metallicFactor":0.0},"emissiveTexture":{"index":2,"extensions":{"KHR_texture_transform":{"offset":[0.0,0.0],"scale":[1.0,1.0],"texCoord":0}}},"emissiveFactor":[1.0,1.0,1.0],"name":"Material #39"},{"pbrMetallicRoughness":{"baseColorTexture":{"index":4,"extensions":{"KHR_texture_transform":{"offset":[0.0,0.0],"scale":[1.0,1.0],"texCoord":0}}},"metallicFactor":0.0},"normalTexture":{"index":3,"extensions":{"KHR_texture_transform":{"offset":[0.0,0.0],"scale":[1.0,1.0],"texCoord":0}}},"emissiveTexture":{"index":4,"extensions":{"KHR_texture_transform":{"offset":[0.0,0.0],"scale":[1.0,1.0],"texCoord":0}}},"emissiveFactor":[1.0,1.0,1.0],"name":"Material #38"},{"pbrMetallicRoughness":{"baseColorTexture":{"index":5,"extensions":{"KHR_texture_transform":{"offset":[0.0,0.0],"scale":[1.0,1.0],"texCoord":0}}},"metallicFactor":0.0},"emissiveTexture":{"index":5,"extensions":{"KHR_texture_transform":{"offset":[0.0,0.0],"scale":[1.0,1.0],"texCoord":0}}},"emissiveFactor":[1.0,1.0,1.0],"name":"Material #36"}],"textures":[{"sampler":0,"source":0,"name":"C1_Diffuse.png"},{"sampler":0,"source":1,"name":"W2_Diffuse.png"},{"sampler":0,"source":2,"name":"F1_DiffuseB.png"},{"sampler":0,"source":3,"name":"W1_Normal.png"},{"sampler":0,"source":4,"name":"W1_DiffuseLinear.png"},{"sampler":0,"source":5,"name":"WI1_Diffuse2.png"}],"images":[{"uri":"./C1_Diffuse.png"},{"uri":"./W2_Diffuse.png"},{"uri":"./F1_DiffuseB.png"},{"uri":"./W1_Normal.png"},{"uri":"./W1_DiffuseLinear.png"},{"uri":"./WI1_Diffuse2.png"}],"samplers":[{"magFilter":9729,"minFilter":9987}]}